<?xml version="1.0" encoding="UTF-8" standalone="no"?>

<svg
   xmlns:dc="http://purl.org/dc/elements/1.1/"
   xmlns:cc="http://creativecommons.org/ns#"
   xmlns:rdf="http://www.w3.org/1999/02/22-rdf-syntax-ns#"
   xmlns:svg="http://www.w3.org/2000/svg"
   xmlns="http://www.w3.org/2000/svg"
   version="1.1"
   width="120"
   height="45"
   id="silex-logo">
  <path
     d="M 22.5,0 C 15.17883,0 7.86064,1.575 4.71639,4.7191 -1.57213,11.0071 -1.57213,33.9959 4.71639,40.284 11.0049,46.572 33.9951,46.572 40.28361,40.284 46.57213,33.9959 46.57213,11.0071 40.28361,4.7191 37.13936,1.575 29.82117,0 22.5,0 z M 23.40637,6.0317 C 25.20683,6.0757 26.98209,6.257 28.62581,6.5629 28.86317,7.7524 29.00086,8.9873 29.00086,10.2507 29.00086,20.7804 20.52873,29.252 9.99834,29.252 8.8459,29.252 7.71437,29.138 6.62289,28.9394 6.28075,27.2079 6.07581,25.3239 6.02906,23.4079 7.28728,23.7861 8.62216,24.0016 9.99834,24.0016 17.69586,24.0016 24.0002,17.6977 24.0002,10.0007 24.0002,8.628 23.78516,7.2867 23.40637,6.0317 z M 17.15554,6.4067 C 17.69684,7.4843 17.9994,8.6958 17.9994,10.0007 17.9994,14.4549 14.45279,18.0012 9.99834,18.0012 8.69783,18.0012 7.48243,17.6922 6.40411,17.1574 6.92154,13.851 7.94525,10.991 9.46702,9.4694 10.98879,7.9477 13.84903,6.9272 17.15554,6.4067 z M 34.97041,9.0006 C 35.1701,9.1567 35.36464,9.301 35.53298,9.4694 40.14455,14.0806 40.14455,30.9224 35.53298,35.5337 30.92141,40.1449 14.07859,40.1449 9.46702,35.5337 9.37412,35.4407 9.30615,35.3238 9.21698,35.2211 9.47885,35.2311 9.73463,35.2521 9.99834,35.2521 23.77179,35.2521 35.00166,24.0229 35.00166,10.2504 35.00166,9.828 34.99006,9.4184 34.97046,9.0003 z"
     id="path3226"
     style="fill:#292929;fill-opacity:1;stroke:none" />
  <path
     d="M 49.94333,31.9723 C 50.99343,33.0829 52.22344,33.9755 53.63336,34.6503 55.04326,35.325 56.52825,35.6624 58.08832,35.6624 60.03838,35.6624 61.55334,35.2199 62.63322,34.3351 63.71307,33.4502 64.253,32.2877 64.25302,30.8476 64.253,30.0978 64.12552,29.4604 63.87056,28.9353 63.61557,28.4103 63.26309,27.9603 62.81313,27.5854 62.36313,27.2105 61.8383,26.8729 61.23865,26.5726 60.63896,26.2723 59.99397,25.9573 59.30368,25.6277 L 55.07394,23.782 C 54.38363,23.4827 53.686,23.1229 52.98105,22.7026 52.27609,22.2824 51.6311,21.7722 51.04608,21.1721 50.46106,20.572 49.98864,19.8595 49.62885,19.0346 49.26904,18.2097 49.08914,17.2575 49.08914,16.1781 49.08914,15.0676 49.32145,14.0324 49.78609,13.0724 50.25071,12.1125 50.90303,11.2801 51.74303,10.5751 52.58302,9.8702 53.56561,9.3227 54.6908,8.9326 55.81597,8.5426 57.05376,8.3476 58.40417,8.3476 60.17387,8.3476 61.80122,8.6852 63.28622,9.3604 64.77119,10.0356 66.03874,10.9129 67.08887,11.9923 L 65.10858,14.423 C 64.2086,13.5524 63.20358,12.8697 62.09352,12.3748 60.98343,11.88 59.75365,11.6325 58.40417,11.6325 56.72326,11.6325 55.38041,12.015 54.37563,12.7799 53.37083,13.5449 52.86843,14.6025 52.86844,15.9529 52.86843,16.6725 53.01835,17.28 53.31819,17.7753 53.61802,18.2706 54.00048,18.7057 54.46558,19.0806 54.93066,19.4555 55.45571,19.7853 56.04074,20.07 56.62575,20.3548 57.20345,20.6171 57.77383,20.8569 L 62.00357,22.6573 C 62.84309,23.0171 63.638,23.4296 64.38829,23.8946 65.13855,24.3597 65.78353,24.8999 66.32326,25.5151 66.86294,26.1304 67.29049,26.8504 67.60591,27.6753 67.92129,28.5002 68.07899,29.4528 68.07901,30.5331 68.07899,31.7032 67.84644,32.7981 67.38138,33.818 66.91627,34.8379 66.24862,35.7303 65.37843,36.4953 64.50821,37.2602 63.45077,37.8601 62.20613,38.295 60.96146,38.7298 59.5591,38.9473 57.99905,38.9473 55.92904,38.9473 54.0165,38.5573 52.26144,37.7772 50.50637,36.9972 48.98385,35.9324 47.69388,34.583 z"
     id="path3248"
     style="font-size:45px;font-style:normal;font-variant:normal;font-weight:normal;font-stretch:normal;text-align:start;line-height:125%;letter-spacing:-3.23000002px;word-spacing:0px;writing-mode:lr-tb;text-anchor:start;fill:#292929;fill-opacity:1;stroke:none;font-family:Source Sans Pro;-inkscape-font-specification:Source Sans Pro" />
  <path
     d="M 70.17189,16.5379 73.86192,16.5379 73.86192,38.4076 70.17189,38.4076 z"
     id="path3250"
     style="font-size:45px;font-style:normal;font-variant:normal;font-weight:normal;font-stretch:normal;text-align:start;line-height:125%;letter-spacing:-5.53000021px;word-spacing:0px;writing-mode:lr-tb;text-anchor:start;fill:#292929;fill-opacity:1;stroke:none;font-family:Source Sans Pro;-inkscape-font-specification:Source Sans Pro" />
  <path
     d="M 75.7161,6.3673 79.40614,6.3673 79.40614,34.2671 C 79.40613,34.8677 79.51119,35.2879 79.72131,35.5278 79.93141,35.7677 80.17151,35.8876 80.4416,35.8876 80.56152,35.8876 80.67391,35.8876 80.77874,35.8876 80.88356,35.8876 81.0408,35.8576 81.25047,35.7966 L 81.74623,38.5872 C 81.50635,38.7071 81.22139,38.7971 80.89135,38.857 80.5613,38.917 80.1413,38.947 79.63136,38.947 78.22144,38.947 77.21642,38.527 76.6163,37.687 76.01616,36.847 75.7161,35.6172 75.7161,33.9976 z"
     id="path3252"
     style="font-size:45px;font-style:normal;font-variant:normal;font-weight:normal;font-stretch:normal;text-align:start;line-height:125%;letter-spacing:-4.48999977px;word-spacing:0px;writing-mode:lr-tb;text-anchor:start;fill:#292929;fill-opacity:1;stroke:none;font-family:Source Sans Pro;-inkscape-font-specification:Source Sans Pro" />
  <path
     d="M 81.11929,27.5174 C 81.11929,25.7175 81.39692,24.105 81.95219,22.68 82.50746,21.255 83.24263,20.0474 84.1577,19.0572 85.07276,18.0671 86.11509,17.3097 87.28468,16.7851 88.45426,16.2605 89.66939,15.9982 90.93008,15.9982 92.30977,15.9982 93.5471,16.2381 94.64209,16.7178 95.73704,17.1976 96.65211,17.8874 97.3873,18.7874 98.12245,19.6873 98.68504,20.7674 99.07507,22.0276 99.46507,23.2879 99.66007,24.698 99.6601,26.2581 99.66007,27.0674 99.6148,27.7422 99.52414,28.2823 L 84.76538,28.2823 C 84.91461,30.6526 85.64176,32.5278 86.94685,33.908 88.25193,35.2881 89.95458,35.9782 92.05481,35.9782 93.10491,35.9782 94.07239,35.8205 94.95726,35.5051 95.8421,35.1897 96.68965,34.7771 97.49991,34.2671 L 98.80453,36.6978 C 97.84504,37.2975 96.78029,37.8223 95.61026,38.2723 94.4402,38.7223 93.10491,38.9473 91.60437,38.9473 90.13494,38.9473 88.76256,38.6848 87.48724,38.1597 86.21191,37.6346 85.10183,36.8846 84.15701,35.9096 83.21218,34.9345 82.46969,33.7421 81.92953,32.3321 81.38937,30.9222 81.11929,29.3173 81.11929,27.5174 z M 96.41913,25.8529 C 96.41911,23.6026 95.9467,21.8848 95.00189,20.6997 94.05705,19.5145 92.72954,18.922 91.01935,18.9219 90.23931,18.922 89.49682,19.0797 88.79187,19.395 88.08691,19.7105 87.44947,20.1607 86.87956,20.7457 86.30964,21.3307 85.83723,22.0506 85.46233,22.9052 85.08741,23.7598 84.83999,24.7424 84.72006,25.8529 z"
     id="path3254"
     style="font-size:45px;font-style:normal;font-variant:normal;font-weight:normal;font-stretch:normal;text-align:start;line-height:125%;letter-spacing:-2.20000005px;word-spacing:0px;writing-mode:lr-tb;text-anchor:start;fill:#292929;fill-opacity:1;stroke:none;font-family:Source Sans Pro;-inkscape-font-specification:Source Sans Pro" />
  <path
     d="M 106.95915,26.9777 100.34401,16.5379 104.34852,16.5379 107.27363,21.3527 C 107.60413,21.9524 107.94928,22.5598 108.30909,23.175 108.66889,23.7903 109.04379,24.3977 109.43382,24.9974 L 109.61372,24.9974 C 109.94421,24.3977 110.27449,23.7903 110.60455,23.175 110.93459,22.5598 111.2644,21.9524 111.59401,21.3527 L 114.24858,16.5379 118.11851,16.5379 111.50337,27.3828 118.61427,38.4076 114.60838,38.4076 111.4141,33.3223 C 111.02408,32.6622 110.63406,32.0023 110.24406,31.3427 109.85404,30.6831 109.44891,30.0378 109.0287,29.407 L 108.8488,29.407 C 108.45877,30.0378 108.08386,30.6757 107.72407,31.3207 107.36426,31.9657 107.004,32.6329 106.64329,33.3223 L 103.67424,38.4076 99.8043,38.4076 z"
     id="path3256"
     style="font-size:45px;font-style:normal;font-variant:normal;font-weight:normal;font-stretch:normal;text-align:start;line-height:125%;letter-spacing:-3.96000004px;word-spacing:0px;writing-mode:lr-tb;text-anchor:start;fill:#292929;fill-opacity:1;stroke:none;font-family:Source Sans Pro;-inkscape-font-specification:Source Sans Pro" />
</svg>
