<?xml version="1.0" encoding="UTF-8" standalone="no"?>
<svg
   xmlns="http://www.w3.org/2000/svg"
   version="1.1"
   width="64"
   height="64"
   id="icon-key">
  <path
     d="m 63.98913,31.75854 c -0.065,0.6797 -0.3632,1.3748 -0.8886,2.0736 -0.9197,1.2235 -2.5617,2.4774 -4.6542,3.5543 -0.2663,0.137 -0.5332,0.2628 -0.5576,0.2628 -0.01,0 -1.0909,-0.4763 -2.4018,-1.0584 -1.5939,-0.7078 -2.3881,-1.0556 -2.3976,-1.0501 -0.01,0 -0.5167,0.4969 -1.1307,1.0942 l -1.1165,1.0861 -1.0674,-1.0699 -1.0674,-1.0699 -0.5216,0.01 c -0.2869,0 -0.7653,0.01 -1.0631,0.013 l -0.5413,0.01 -0.095,0.092 c -0.052,0.051 -0.499,0.4794 -0.9925,0.9526 -0.4935,0.4732 -0.9297,0.892 -0.9694,0.9307 -0.064,0.063 -0.074,0.069 -0.089,0.056 -0.01,-0.01 -0.4275,-0.4867 -0.9294,-1.0644 -0.5018,-0.5777 -0.9188,-1.0504 -0.9266,-1.0504 -0.01,0 -0.879,0.4736 -1.9361,1.0524 l -1.9221,1.0523 -3.2831,0.071 c -2.7833,0.06 -3.3675,0.075 -3.8378,0.099 -0.4287,0.022 -0.5579,0.032 -0.5685,0.042 -0.01,0.01 -0.043,0.084 -0.078,0.1692 -0.2845,0.6838 -0.647,1.4095 -1.0394,2.0808 -0.5549,0.9489 -1.2185,1.869 -1.9594,2.7164 -0.467,0.5342 -1.0714,1.1405 -1.6044,1.6096 -1.3075,1.1507 -2.7939,2.1005 -4.3259,2.764 -1.5391,0.6665 -3.1468,1.0717 -4.7621,1.2001 -0.3764,0.03 -0.5299,0.036 -0.9925,0.042 -1.0687,0.014 -2.0662,-0.071 -3.1129,-0.2627 -3.6043,-0.6617 -6.8833,-2.5516 -9.2883,-5.3533 -1.2232,-1.425 -2.1958,-3.0692 -2.8517,-4.8208 -0.7995,-2.1354 -1.1315,-4.4054 -0.9826,-6.7185 0.2234,-3.4703 1.5136,-6.8255 3.6872,-9.5892 0.7176,-0.9124 1.5686,-1.7875 2.4558,-2.5251 2.5252,-2.0997 5.527,-3.33 8.6739,-3.5551 0.4972,-0.036 1.1997,-0.046 1.6341,-0.025 2.6831,0.1308 5.4483,1.1173 8.0517,2.8724 1.0877,0.7332 2.0638,1.5417 2.9975,2.4826 0.337,0.3397 0.4222,0.4295 0.6712,0.7074 1.4209,1.5863 2.4259,3.2611 2.8563,4.76 0.062,0.2165 0.1188,0.458 0.1517,0.6466 0.019,0.1111 0.037,0.1358 0.1267,0.1815 0.084,0.043 0.1662,0.059 0.3033,0.059 0.1577,2e-4 0.2891,-0.023 0.4913,-0.086 l 0.08,-0.025 11.7397,0.034 11.7398,0.034 4.1304,2.1128 c 2.2718,1.1621 4.1406,2.1193 4.153,2.1271 0.021,0.013 0.023,0.021 0.021,0.1018 -7e-4,0.048 -0.01,0.1277 -0.01,0.1769 z m -8.5092,-1.6634 c -0.043,-0.208 -0.135,-0.3782 -0.2868,-0.5319 -0.055,-0.056 -0.1337,-0.1233 -0.1745,-0.15 -0.089,-0.058 -0.2243,-0.118 -0.3355,-0.1481 l -0.082,-0.022 -10.8174,0 c -7.9916,0 -10.8383,0 -10.8974,0.01 -0.2709,0.038 -0.5319,0.1931 -0.6986,0.4143 -0.2476,0.3287 -0.2872,0.7557 -0.1041,1.1241 0.1397,0.2813 0.3822,0.4782 0.6952,0.5646 l 0.097,0.027 10.8073,0 c 7.9262,0 10.8285,-10e-5 10.8867,-0.01 0.4534,-0.064 0.8137,-0.3979 0.9086,-0.8417 0.025,-0.1178 0.025,-0.3164 7e-4,-0.4361 z m -46.91,1.2983 c -0.053,-1.3968 -0.2064,-2.5606 -0.4577,-3.4839 -0.3442,-1.2648 -0.8411,-1.9248 -1.3923,-1.8491 -0.4948,0.068 -1.0337,0.636 -1.5035,1.5849 -0.5535,1.1179 -0.8906,2.5182 -0.9682,4.0221 -0.024,0.4683 0,1.2493 0.046,1.7361 0.1823,1.7901 0.7783,3.4761 1.5542,4.3961 0.099,0.1173 0.3053,0.3141 0.4016,0.383 0.2289,0.1636 0.4615,0.2339 0.6598,0.1993 0.3859,-0.067 0.7407,-0.5087 1.0219,-1.2719 0.3468,-0.9409 0.5764,-2.3876 0.637,-4.0123 0.012,-0.3152 0.012,-1.4077 10e-4,-1.7043 z"
     id="icon"
     style="fill:#2e2e2e" />
</svg>
