<?xml version="1.0" encoding="UTF-8" standalone="no"?>
<svg
	 xmlns="http://www.w3.org/2000/svg"
	 version="1.1"
	 width="64"
	 height="64.000198"
	 id="icon-logout">
	<path
		 d="m 31.99984,0 c -1.53237,0 -3.06447,0.3492 -3.76307,1.0478 -1.02736,1.0274 -1.29959,3.8575 -0.81613,5.8395 l 0,23.1959 c -0.48346,1.982 -0.21123,4.8121 0.81613,5.8395 1.39721,1.3972 6.12986,1.3972 7.52707,0 1.02735,-1.0274 1.29867,-3.8575 0.8152,-5.8395 l 0,-23.1959 C 37.06251,4.9053 36.79119,2.0752 35.76384,1.0478 35.06523,0.3492 33.53221,0 31.99984,0 z M 15.94956,11.0648 c -0.17325,0 -0.34415,0.01 -0.51239,0.029 -0.60909,0.072 -1.42255,0.2845 -1.90185,0.6592 -9.3e-4,0 -0.003,0 -0.004,0 -0.33362,0.2079 -0.63861,0.4573 -0.90753,0.7414 C 6.29521,17.871 2.26704,25.8225 2.26704,34.6887 c 0,16.176 13.40801,29.3115 29.73342,29.3115 16.3254,0 29.73249,-13.1355 29.73249,-29.3115 0,-8.7765 -3.94816,-16.6564 -10.16656,-22.0301 -1.06989,-1.0323 -2.25785,-1.4833 -3.00326,-1.5731 -0.15481,-0.016 -0.31183,-0.023 -0.47083,-0.023 -2.52903,0 -4.5792,2.0501 -4.5792,4.5791 0.14729,1.2039 0.53233,2.4973 1.25834,3.2119 4.76819,3.6882 7.80311,9.4066 7.80311,15.8352 0,11.1421 -9.11521,20.1531 -20.57409,20.1531 -11.45889,0 -20.57502,-9.011 -20.57502,-20.1531 0,-6.0938 2.72718,-11.5494 7.07285,-15.2425 0.28801,-0.1816 0.49548,-0.4109 0.73027,-0.5927 -0.003,0 -0.005,-0.01 -0.007,-0.01 0.80838,-0.8257 1.3073,-1.9558 1.3073,-3.2027 0,-2.529 -2.05018,-4.5791 -4.5792,-4.5791 z"
		 id="icon"
		 style="fill:#ffffff" />
</svg>
