<?xml version="1.0" encoding="UTF-8" standalone="no"?>
<svg
	 xmlns="http://www.w3.org/2000/svg"
	 version="1.1"
	 width="64"
	 height="64"
	 id="icon-user">
	<path
		 d="m 16.1737,63.97935 -15.61291,-0.0136 -0.009,-0.54306 c -0.01,-0.60192 0.0308,-1.81895 0.091,-2.75602 0.22371,-3.47543 0.72371,-5.77221 1.46991,-6.7521 0.14314,-0.18796 1.56417,-1.63684 1.95032,-1.98855 1.01056,-0.9204 1.96462,-1.57493 3.18693,-2.18637 2.137,-1.069 4.71579,-1.80511 8.28517,-2.36498 0.98664,-0.15475 1.53041,-0.25544 2.11521,-0.39166 3.54517,-0.82581 5.74008,-2.34351 6.44763,-4.45829 0.11573,-0.34589 0.19392,-0.74204 0.23479,-1.18945 0.017,-0.18588 0.042,-0.35865 0.0554,-0.38393 0.0231,-0.0432 -0.005,-2.20074 -0.0502,-3.89163 l -0.019,-0.70351 -0.33941,-0.23042 C 22.72272,35.27251 21.50863,34.11993 20.6132,32.93 c -0.63186,-0.83967 -1.17819,-1.80308 -1.52439,-2.68813 -0.076,-0.19415 -0.15211,-0.36744 -0.16926,-0.38508 -0.0171,-0.0177 -0.16559,-0.0891 -0.32987,-0.15892 -0.43933,-0.18656 -1.04991,-0.50187 -1.34406,-0.6941 -0.15916,-0.10401 -0.36271,-0.27359 -0.53145,-0.44275 -0.45264,-0.45374 -0.55646,-0.71731 -0.71758,-1.82188 -0.19941,-1.36699 -0.26748,-2.13267 -0.28967,-3.25834 -0.0442,-2.24171 0.30097,-3.50979 1.02279,-3.75752 0.0523,-0.0179 0.20501,-0.0433 0.33942,-0.0563 0.3819,-0.0369 0.61128,-0.16537 0.76553,-0.42857 0.14432,-0.24628 0.17019,-0.49857 0.10315,-1.00607 -0.0602,-0.45598 -0.0963,-3.29009 -0.067,-5.25974 0.0411,-2.7558 0.10459,-3.78091 0.28684,-4.62957 C 18.48,6.84202 19.1064,5.39288 19.87376,4.37292 20.72793,3.23757 21.73411,2.56287 22.94601,2.3128 c 0.88664,-0.18296 1.756,-0.30414 2.20108,-0.30681 0.32479,-0.002 0.38151,0.005 0.49779,0.0584 0.10013,0.0463 0.18057,0.0605 0.33941,0.0601 0.47273,-9.8e-4 0.81295,-0.13796 1.23611,-0.49738 0.14721,-0.12503 0.33458,-0.26788 0.41638,-0.31747 0.32185,-0.19505 0.78681,-0.31162 1.3635,-0.34184 0.26686,-0.014 0.65993,-0.0901 2.58204,-0.50033 2.25779,-0.48182 2.26816,-0.48375 2.47973,-0.45966 0.56891,0.0648 1.06655,0.29307 1.70182,0.78069 0.12694,0.0974 0.65235,0.60071 1.16757,1.11837 1.20002,1.20572 1.30449,1.27856 1.9075,1.33009 0.19494,0.0167 0.42335,0.0167 0.6313,1.1e-4 1.19528,-0.0953 2.16922,-0.0404 3.14226,0.17714 1.5643,0.34975 2.56522,1.58216 2.99044,3.68205 0.1463,0.72251 0.2169,1.36589 0.30215,2.75369 0.0229,0.37335 0.0591,0.89876 0.0802,1.16758 0.0832,1.05571 0.10952,1.95127 0.10955,3.73351 0,2.17045 -0.0408,2.91647 -0.20593,3.76782 -0.11345,0.58477 -0.0423,0.96821 0.20666,1.11355 0.0979,0.0571 0.13368,0.0622 0.36438,0.0519 0.43679,-0.0197 0.66145,0.0666 0.93039,0.35711 0.4316,0.46618 0.69962,1.40658 0.80996,2.84193 0.0582,0.75635 0.0273,2.64064 -0.0544,3.3267 -0.0441,0.37065 -0.23677,0.88682 -0.45261,1.21301 -0.14325,0.21651 -0.44392,0.52824 -0.6881,0.71343 -0.30736,0.23311 -0.5418,0.38496 -1.34407,0.87058 -1.18754,0.71883 -1.15908,0.69848 -1.21758,0.87048 -0.29207,0.85885 -0.96286,2.17403 -1.60391,3.14476 -0.80733,1.22248 -1.94142,2.52992 -2.97097,3.42503 l -0.1718,0.14939 -0.0512,1.77793 c -0.0282,0.97786 -0.0711,2.08951 -0.0953,2.47033 -0.047,0.7377 -0.0332,1.09975 0.0589,1.54558 0.2871,1.38994 1.24594,2.54972 2.82788,3.42052 1.23371,0.67909 2.98006,1.20609 5.0025,1.50959 2.05275,0.30806 3.61379,0.6357 5.15905,1.08282 2.81726,0.81517 4.86036,1.86122 6.6253,3.39211 0.51923,0.45037 2.07055,2.03493 2.24173,2.28978 0.69267,1.03115 1.26337,3.24054 1.66843,6.45902 0.14694,1.16754 0.34723,3.37802 0.31134,3.43609 -0.0163,0.0263 -16.1082,0.026 -47.27239,-9.8e-4 z"
		 id="icon"
		 style="fill:#2e2e2e" />
</svg>
