<?xml version="1.0" encoding="UTF-8" standalone="no"?>
<svg
   xmlns:dc="http://purl.org/dc/elements/1.1/"
   xmlns:cc="http://creativecommons.org/ns#"
   xmlns:rdf="http://www.w3.org/1999/02/22-rdf-syntax-ns#"
   xmlns:svg="http://www.w3.org/2000/svg"
   xmlns="http://www.w3.org/2000/svg"
   version="1.1"
   width="45"
   height="45"
   id="silex_logo_single">
  <path
     d="M 22.5,0 C 15.178827,0 7.8606446,1.5749 4.7163868,4.7191 c -6.2885157,6.2881 -6.2885157,29.2767 0,35.5649 6.2885152,6.288 29.2787112,6.288 35.5672262,0 6.288516,-6.2882 6.288516,-29.2768 0,-35.5649 C 37.139355,1.5749 29.821173,0 22.5,0 z m 0.90637,6.0317 c 1.80046,0.044 3.575716,0.2254 5.219444,0.5313 0.237352,1.1894 0.37505,2.4243 0.37505,3.6877 0,10.5297 -8.472136,19.0012 -19.0025253,19.0012 -1.1524432,0 -2.2839735,-0.1138 -3.3754486,-0.3124 -0.3421355,-1.7316 -0.5470827,-3.6156 -0.5938289,-5.5317 1.2582172,0.3783 2.5930946,0.5938 3.9692775,0.5938 7.6975233,0 14.0018603,-6.3039 14.0018603,-14.001 0,-1.3726 -0.215038,-2.7139 -0.593829,-3.9689 z m -6.25083,0.3751 c 0.541302,1.0775 0.843862,2.289 0.843862,3.5938 0,4.4542 -3.546611,8.0006 -8.0010633,8.0006 -1.3005129,0 -2.5159044,-0.309 -3.5942277,-0.8437 C 6.9215398,13.8511 7.9452458,10.9911 9.4670181,9.4695 10.98879,7.9478 13.84903,6.9271 17.15554,6.4068 z m 17.814867,2.5938 c 0.199697,0.1561 0.394233,0.3005 0.562575,0.4689 4.611573,4.6112 4.611573,21.4528 0,26.0641 -4.611573,4.6113 -21.454391,4.6113 -26.0659639,0 -0.092912,-0.093 -0.1608714,-0.2099 -0.2500333,-0.3124 0.2618648,0.01 0.5176488,0.031 0.7813539,0.031 13.7734503,0 25.0033223,-11.2291 25.0033223,-25.0016 0,-0.4225 -0.0116,-0.8319 -0.0312,-1.2501 z"
     id="silex-logo-path"
     style="fill:#222222" />
</svg>
