<?xml version="1.0" encoding="UTF-8" standalone="no"?>
<svg
	 xmlns="http://www.w3.org/2000/svg"
	 version="1.1"
	 width="64.000076"
	 height="64"
	 id="icon-mail">
	<path
		 d="M 3.99997,52.5671 C 3.96067,52.5571 3.83211,52.5431 3.71426,52.5261 2.79784,52.396 1.89614,51.9745 1.27821,51.3874 0.55542,50.7007 0.14698,49.8039 0.0299,48.6465 0.0095,48.4444 0,43.5979 0,33.3516 0,20.1555 0.005,18.3536 0.0421,18.3617 c 0.0388,0.01 13.46035,11.4976 13.53111,11.5828 0.0241,0.029 -0.9994,2.083 -4.36927,8.7689 -2.42038,4.802 -4.40919,8.7594 -4.41958,8.7942 l -0.0189,0.063 0.0578,-0.057 c 0.0318,-0.031 2.5543,-3.49 5.6056,-7.6857 3.0513,-4.1957 5.57191,-7.6535 5.60134,-7.6839 0.0485,-0.05 0.0583,-0.051 0.10452,-0.011 0.0281,0.024 2.03101,1.7405 4.45101,3.814 3.92941,3.3668 4.42341,3.7992 4.61887,4.0428 0.43818,0.5459 1.09186,1.1985 1.65298,1.6501 1.28585,1.035 2.649,1.6683 4.02815,1.8715 0.41812,0.062 1.36063,0.1117 1.68572,0.09 1.86306,-0.1266 3.74414,-1.0792 5.41758,-2.7436 0.26896,-0.2675 0.59039,-0.6038 0.71429,-0.7475 0.1754,-0.2033 1.21979,-1.1158 4.71738,-4.1214 2.47066,-2.1232 4.50852,-3.8599 4.52857,-3.8594 0.0201,4e-4 2.58796,3.4853 5.70645,7.7441 3.1185,4.2588 5.68857,7.7586 5.71127,7.7775 0.0343,0.028 0.0381,0.024 0.0224,-0.025 -0.0104,-0.033 -1.9344,-4.0867 -4.27555,-9.0087 -2.34115,-4.922 -4.25664,-8.965 -4.25664,-8.9845 0,-0.041 13.03716,-11.2563 13.10078,-11.2703 0.037,-0.01 0.0421,1.7869 0.0421,14.92 l 0,14.9292 -0.0591,0.3063 c -0.22481,1.1649 -0.77561,2.232 -1.51812,2.9409 -0.65966,0.6299 -1.44578,0.9837 -2.43822,1.0974 -0.23883,0.027 -55.79877,0.039 -55.98456,0.012 z m 28,-11.6293 C 30.59859,40.8398 29.24366,40.2311 27.91425,39.1023 27.76497,38.9755 21.4505,33.7229 13.88211,27.4299 6.31372,21.1369 0.11317,15.9666 0.10311,15.9404 c -0.0308,-0.08 0.0377,-0.7776 0.1135,-1.155 0.21936,-1.0918 0.70974,-1.982 1.39403,-2.5307 0.50671,-0.4063 1.03194,-0.6339 1.78933,-0.7754 0.25853,-0.048 1.59944,-0.051 28.21428,-0.059 20.20252,-0.01 28.02992,-10e-5 28.25715,0.023 0.6047,0.061 1.1483,0.2124 1.69787,0.4743 1.43539,0.6841 2.25908,1.9947 2.3365,3.7176 0.0135,0.3005 0.009,0.3876 -0.023,0.4262 -0.022,0.027 -6.1471,5.1399 -13.61138,11.3627 -10.6913,8.9132 -13.63739,11.3832 -13.88224,11.6391 -0.54531,0.5698 -1.09891,0.9764 -1.80348,1.3245 -0.63588,0.3143 -1.20494,0.4758 -1.9,0.5395 -0.31736,0.029 -0.41,0.031 -0.68571,0.011 z"
		 id="icon"
		 style="fill:#2e2e2e" />
</svg>
