<?xml version="1.0" encoding="UTF-8" standalone="no"?>
<svg
	 xmlns="http://www.w3.org/2000/svg"
	 version="1.1"
	 width="64"
	 height="64"
	 id="icon-preview">
	<path
		 d="M 30.66517,50.94824 C 23.71793,50.67604 17.10415,47.84464 11.40734,42.70384 9.15067,40.66734 6.99494,38.19974 5.5064,35.94904 5.07315,35.29394 4.98598,35.18774 4.57332,34.81164 3.84707,34.14974 3.08572,33.60704 2.08926,33.04104 1.64231,32.78714 0.78859,32.35874 0.32383,32.15494 0.14572,32.07694 0,32.00564 0,31.99664 c 0,-0.01 0.13383,-0.074 0.2974,-0.1442 0.42071,-0.1807 1.42206,-0.6836 1.84386,-0.9259 1.0772,-0.6188 1.99047,-1.2934 2.66847,-1.971 0.23604,-0.2359 0.34856,-0.3742 0.49482,-0.608 0.56497,-0.9033 1.6779,-2.381 2.62695,-3.4881 2.35159,-2.7432 5.06728,-5.1422 7.90328,-6.9814 4.20944,-2.73 8.69974,-4.3151 13.42916,-4.7406 1.20961,-0.1088 3.05986,-0.1411 4.13713,-0.072 4.04518,0.2587 7.59625,1.2061 11.16894,2.9796 2.08934,1.0371 3.98679,2.2479 5.89509,3.7617 2.92701,2.322 5.73355,5.3451 7.66046,8.2515 0.35847,0.5408 0.44807,0.6569 0.69127,0.896 1.04503,1.0276 2.81403,2.0875 4.79325,2.8718 0.21446,0.085 0.38992,0.1621 0.38992,0.1713 0,0.01 -0.17546,0.086 -0.38992,0.1715 -0.82408,0.3269 -1.80875,0.7979 -2.51797,1.2044 -0.83948,0.4811 -1.73824,1.1393 -2.27592,1.6668 -0.24092,0.2364 -0.33006,0.3509 -0.63795,0.8198 -1.17852,1.7947 -2.80191,3.7582 -4.55453,5.5087 -4.1868,4.1815 -9.01534,7.1055 -14.09922,8.5379 -2.8837,0.8125 -5.84015,1.1602 -8.85932,1.042 z m 2.07502,-10.4395 c 2.31188,-0.2133 4.42333,-1.3521 5.89098,-3.1773 0.63197,-0.786 1.19145,-1.8456 1.48454,-2.8116 0.82498,-2.7192 0.26539,-5.6267 -1.51078,-7.8496 -0.29787,-0.3728 -0.91864,-0.9936 -1.29142,-1.2914 -2.18918,-1.7493 -5.0563,-2.3227 -7.73234,-1.5465 -2.89061,0.8384 -5.1524,3.1852 -5.88167,6.1027 -0.1787,0.7149 -0.25128,1.3202 -0.25132,2.0957 -8e-5,1.6802 0.46878,3.2562 1.38508,4.6556 0.32303,0.4934 0.6421,0.8809 1.11266,1.3515 0.47093,0.4709 0.8608,0.7918 1.34859,1.1101 1.21215,0.7908 2.4547,1.2187 3.97852,1.37 0.21748,0.022 1.20005,0.015 1.46716,-0.01 z m -1.0888,-4.2816 c -1.35793,-0.1203 -2.57832,-0.8908 -3.2905,-2.0776 -0.27362,-0.456 -0.48432,-1.071 -0.5525,-1.6127 -0.0453,-0.3594 -0.0182,-1.0628 0.0538,-1.399 0.30966,-1.4466 1.32461,-2.6168 2.714,-3.1291 0.40935,-0.1509 0.7961,-0.2213 1.29291,-0.2352 0.26961,-0.01 0.54572,-3e-4 0.68732,0.018 1.72168,0.2248 3.12935,1.4677 3.56523,3.1477 0.1012,0.3901 0.13088,0.64 0.12872,1.0839 -0.003,0.705 -0.12905,1.2325 -0.44383,1.8636 -0.21888,0.4389 -0.45984,0.7757 -0.79365,1.1096 -0.88396,0.8839 -2.12896,1.3397 -3.36146,1.2305 z"
		 id="icon"
		 style="fill:#cccccc" />
</svg>
