<?xml version="1.0" encoding="UTF-8" standalone="no"?>
<svg
	 xmlns="http://www.w3.org/2000/svg"
	 version="1.1"
	 width="64"
	 height="64"
	 id="icon-magnifying-glass">
	<path
		 d="m 55.43277,63.97744 c -0.44186,-0.058 -0.93058,-0.2499 -1.27142,-0.5006 -0.0878,-0.065 -4.20134,-4.254 -9.14124,-9.3098 -4.9399,-5.0558 -9.00547,-9.2093 -9.03459,-9.23 -0.0454,-0.032 -0.0807,-0.016 -0.24889,0.1127 -0.15503,0.1191 -0.31035,0.1945 -0.74414,0.3616 -3.88143,1.4945 -8.04074,1.9715 -12.26468,1.4065 -4.26114,-0.5699 -8.38506,-2.3036 -11.78356,-4.9536 -1.41433,-1.1029 -2.7513,-2.4056 -3.89146,-3.7919 -3.77416,-4.5888 -5.66626,-10.4392 -5.26848,-16.2904 0.30711,-4.5175 1.96942,-8.8352 4.79537,-12.4554 1.03114,-1.3209 2.51481,-2.8207 3.86564,-3.9076 3.72447,-2.9967 8.37882,-4.8609 13.27457,-5.3167 1.31668,-0.1226 3.2257,-0.1366 4.46013,-0.033 7.07708,0.595 13.28899,3.9567 17.37997,9.4056 2.60721,3.4725 4.11407,7.4211 4.5293,11.8684 0.0648,0.6941 0.0908,2.5264 0.0465,3.2809 -0.25571,4.3592 -1.56735,8.3131 -3.93045,11.8483 -0.64788,0.9692 -1.51748,2.0748 -1.78842,2.2737 -0.0843,0.062 -0.14913,0.131 -0.14415,0.1537 0.005,0.023 3.92114,3.822 8.70255,8.443 9.4821,9.164 8.89234,8.5731 9.10643,9.1245 0.14912,0.384 0.18768,0.5967 0.18598,1.0257 -0.002,0.4304 -0.0522,0.6816 -0.21494,1.0689 -0.17965,0.4276 -0.27833,0.536 -2.52244,2.7721 -2.37962,2.3711 -2.3304,2.3285 -2.91133,2.5212 -0.4109,0.1363 -0.78242,0.1745 -1.18627,0.122 z M 27.09144,38.60854 c 5.00316,-0.3104 9.42763,-2.796 12.13593,-6.8178 0.50747,-0.7535 1.10256,-1.8763 1.44037,-2.7176 0.45688,-1.1379 0.80086,-2.4576 0.95066,-3.6475 0.17014,-1.3514 0.15955,-2.8106 -0.0298,-4.1124 -0.61304,-4.2139 -3.01616,-7.9736 -6.62008,-10.3572 -2.09532,-1.3858 -4.36947,-2.2038 -7.03059,-2.5289 -0.4987,-0.061 -0.69821,-0.068 -1.84432,-0.069 -1.40429,-9e-4 -1.66148,0.018 -2.75167,0.1976 -1.35285,0.2233 -2.58264,0.5839 -3.82513,1.1215 -3.36443,1.4556 -6.11263,4.0304 -7.71346,7.2268 -0.88052,1.7581 -1.38104,3.5894 -1.52657,5.5856 -0.0405,0.5551 -0.0223,1.9453 0.0318,2.4372 0.20927,1.9012 0.69013,3.5442 1.51328,5.1707 0.76244,1.5065 1.58563,2.6353 2.82405,3.8723 1.01954,1.0185 1.87889,1.6885 3.11707,2.4305 0.48265,0.2892 1.58368,0.8303 2.14691,1.055 2.27072,0.9059 4.75022,1.3041 7.18157,1.1533 z"
		 id="icon"
		 style="fill:#2e2e2e" />
</svg>
